<?xml version="1.0" encoding="UTF-8" standalone="no"?>
<!-- Created with Inkscape (http://www.inkscape.org/) -->

<svg
   width="66.40181mm"
   height="83.678688mm"
   viewBox="0 0 66.40181 83.678688"
   version="1.1"
   id="svg5"
   xmlns="http://www.w3.org/2000/svg"
   xmlns:svg="http://www.w3.org/2000/svg">
  <defs
     id="defs2" />
  <g
     id="layer1"
     transform="translate(-41.667019,-51.755155)">
    <path
       fill="#FFFFFF"
       style="stroke-width:0.264583"
       d="m 41.667019,124.33918 v -11.09465 l 2.84427,1.66288 c 1.56435,0.91459 5.79107,3.37993 9.39271,5.47855 3.60164,2.09861 6.54844,3.87756 6.54844,3.95322 0,0.0757 -2.9468,1.85462 -6.54844,3.95323 -3.60164,2.09861 -7.82836,4.56396 -9.39271,5.47854 l -2.84427,1.66289 z m 56.95156,5.574 c -5.12961,-2.99092 -9.32656,-5.49922 -9.32656,-5.574 0,-0.0748 4.19695,-2.58308 9.32656,-5.57399 l 9.326561,-5.43803 0.0714,5.50601 c 0.0393,3.02831 0.0393,7.98372 0,11.01202 l -0.0714,5.50602 z m -40.4151,-11.37897 -16.40417,-9.47305 -0.0618,-19.150049 -0.0619,-19.15005 16.45872,-9.50296 c 9.0523,-5.226618 16.58435,-9.502946 16.73789,-9.502946 0.15354,0 7.68558,4.276328 16.73788,9.502946 l 16.458731,9.50296 -0.0619,19.15267 -0.0618,19.152679 -16.404161,9.38352 c -9.02229,5.16093 -16.52323,9.42262 -16.66875,9.47042 -0.14552,0.0478 -7.64646,-4.17597 -16.66875,-9.38614 z m 26.40677,-12.31899 9.70119,-5.55625 -0.0623,-10.972669 -0.0623,-10.97267 -9.525,-5.49135 c -5.23875,-3.02025 -9.65913,-5.49419 -9.82307,-5.49764 -0.48351,-0.0102 -19.22784,10.78405 -19.46618,11.20994 -0.1198,0.21408 -0.1867,5.18556 -0.14866,11.04774 l 0.0692,10.658499 9.65729,5.60884 c 5.31151,3.08487 9.72511,5.58926 9.808,5.56533 0.0829,-0.0239 4.51625,-2.54383 9.8519,-5.59977 z m -17.60938,-2.93329 -7.60677,-4.392109 0.004,-8.90501 0.004,-8.905 7.66921,-4.42243 7.6692,-4.42243 7.67191,4.42243 7.67192,4.42243 -0.0652,8.97898 -0.0651,8.97897 -7.27604,4.213249 c -4.00183,2.31728 -7.45464,4.26044 -7.67292,4.31814 -0.21828,0.0577 -3.81992,-1.87155 -8.00365,-4.28722 z"
       id="path21" />
  </g>
</svg>
