<?xml version="1.0" standalone="no"?><!DOCTYPE svg PUBLIC "-//W3C//DTD SVG 1.1//EN" "http://www.w3.org/Graphics/SVG/1.1/DTD/svg11.dtd"><svg t="1662258019441" class="icon" viewBox="0 0 1053 1024" version="1.1" xmlns="http://www.w3.org/2000/svg" p-id="2412" xmlns:xlink="http://www.w3.org/1999/xlink" width="205.6640625" height="200"><path d="M33.853557 1020.480964l323.342421-210.589365L25.517728 614.218981 0.071513 1000.299483a21.936392 21.936392 0 0 0 33.782044 20.181481z" fill="#DAD6CA" p-id="2413"></path><path d="M527.861109 18.207206l104.548845 61.202534a131.618353 131.618353 0 0 1 47.075498 180.053907l-322.026237 550.164715-331.67825-194.13707 322.026237-550.164716A131.618353 131.618353 0 0 1 527.904982 18.207206z" fill="#6D32BA" p-id="2414"></path><path d="M1053.018338 977.924363a43.872784 43.872784 0 0 1-43.872785 43.872784H351.053788a43.872784 43.872784 0 1 1 0-87.745568h658.091765a43.872784 43.872784 0 0 1 43.872785 43.872784z m-1049.87573-26.32367L0.071513 1000.299483a21.936392 21.936392 0 0 0 33.782044 19.742753l47.821335-31.149677z" fill="#34195E" p-id="2415"></path></svg>