<?xml version="1.0" standalone="no"?><!DOCTYPE svg PUBLIC "-//W3C//DTD SVG 1.1//EN" "http://www.w3.org/Graphics/SVG/1.1/DTD/svg11.dtd"><svg t="1662258517587" class="icon" viewBox="0 0 1024 1024" version="1.1" xmlns="http://www.w3.org/2000/svg" p-id="11989" xmlns:xlink="http://www.w3.org/1999/xlink" width="200" height="200"><path d="M512 512m-512 0a512 512 0 1 0 1024 0 512 512 0 1 0-1024 0Z" fill="#409EFF" p-id="11990"></path><path d="M197.316923 197.277538v550.596924h511.409231V197.316923H197.316923z m472.851692 512H235.204923V235.165538h434.963692v474.112z" fill="#FFFFFF" p-id="11991"></path><path d="M288.059077 433.506462h322.323692v38.754461H288.059077zM288.059077 512.157538h322.323692v38.754462H288.059077zM288.059077 590.848h322.323692v38.793846H288.059077zM288.059077 354.540308h161.161846v38.754461H288.059077z" fill="#FFFFFF" p-id="11992"></path><path d="M826.683077 826.564923H413.814154v-37.927385h375.059692V313.816615H749.095385v-37.888h77.587692z" fill="#FFFFFF" p-id="11993"></path></svg>